<svg xmlns="http://www.w3.org/2000/svg" id="Capa_1" data-name="Capa 1" viewBox="787.13 470.89 345.8 138.22"><defs><style>.cls-2{fill:#32246b}</style></defs><path d="M1012.74 544.59q0-10.83 7-15.49a22.43 22.43 0 0 1 13.35-3.8 2.42 2.42 0 0 0 2.52-2.41v-16.53a2.43 2.43 0 0 0-2.62-2.42 26.7 26.7 0 0 0-11.3 3.5 20.26 20.26 0 0 0-8.94 10.83" style="fill:#1cded6"/><path d="M830.87 501.73q15.2 0 26 11.5t10.75 28.2q0 16.7-10.75 28.2t-26 11.5q-12.39 0-20.34-6.76a2.42 2.42 0 0 0-4 1.8v30.52a2.42 2.42 0 0 1-2.42 2.42h-1.27a15.71 15.71 0 0 1-15.71-15.72v-87.14a2.42 2.42 0 0 1 2.42-2.42h14.56a2.42 2.42 0 0 1 2.42 2.42v.44a2.42 2.42 0 0 0 4 1.8q7.95-6.76 20.34-6.76m-18.5 55a20.05 20.05 0 0 0 14.89 5.94 20.3 20.3 0 0 0 15-5.94q5.94-5.94 5.94-15.26t-5.94-15.27a20.3 20.3 0 0 0-15-5.94 20.05 20.05 0 0 0-14.89 5.94q-5.86 6-5.86 15.27t5.86 15.22ZM894.49 525.19q0 3 4 4.88a52.5 52.5 0 0 0 9.7 3.31A103 103 0 0 1 919.6 537a22.2 22.2 0 0 1 9.7 7.3 20.15 20.15 0 0 1 4 12.78q0 11.58-8.65 17.82t-21.58 6.24q-21.72 0-30.48-15.75a2.42 2.42 0 0 1 .93-3.29l12.46-7a2.4 2.4 0 0 1 3.32 1q3.78 7.47 13.77 7.47 10.38 0 10.38-6.47c0-2-1.33-3.63-4-4.89a56.7 56.7 0 0 0-9.7-3.38 102 102 0 0 1-11.43-3.83 23.54 23.54 0 0 1-9.7-7.15 18.7 18.7 0 0 1-4-12.25q0-11.13 8.19-17.52t20.38-6.39a34 34 0 0 1 16.69 4.13 30 30 0 0 1 10.48 9.55 2.44 2.44 0 0 1-.85 3.49l-12.18 6.64a2.46 2.46 0 0 1-3.23-.87q-3.67-5.63-10.89-5.63a11 11 0 0 0-6.24 1.65 5.18 5.18 0 0 0-2.48 4.54M952.39 494.81a12.07 12.07 0 0 1-11.88-11.88 11.7 11.7 0 0 1 3.49-8.43 11.33 11.33 0 0 1 8.35-3.61 11.5 11.5 0 0 1 8.5 3.61 11.7 11.7 0 0 1 3.53 8.43 11.4 11.4 0 0 1-3.53 8.34 11.6 11.6 0 0 1-8.46 3.54m-9.62 81.8v-70.36a2.41 2.41 0 0 1 2.41-2.42h14.57a2.42 2.42 0 0 1 2.42 2.42v70.36a2.43 2.43 0 0 1-2.42 2.42h-14.57a2.42 2.42 0 0 1-2.41-2.42M1053.49 494.81a12.07 12.07 0 0 1-11.88-11.88 11.7 11.7 0 0 1 3.53-8.43 11.33 11.33 0 0 1 8.35-3.61 11.5 11.5 0 0 1 8.5 3.61 11.7 11.7 0 0 1 3.53 8.43 11.4 11.4 0 0 1-3.53 8.34 11.6 11.6 0 0 1-8.5 3.54m-9.62 81.8v-70.36a2.41 2.41 0 0 1 2.41-2.42h14.57a2.42 2.42 0 0 1 2.42 2.42v70.36a2.43 2.43 0 0 1-2.42 2.42h-14.57a2.42 2.42 0 0 1-2.41-2.42M1094.09 525.19q0 3 4 4.88a52 52 0 0 0 9.7 3.31 104 104 0 0 1 11.43 3.61 22.25 22.25 0 0 1 9.7 7.3 20.2 20.2 0 0 1 4 12.78q0 11.58-8.65 17.82t-21.58 6.24q-21.72 0-30.48-15.75a2.42 2.42 0 0 1 .93-3.29l3.46-1.94a15.94 15.94 0 0 1 16.69.94 16.7 16.7 0 0 0 9.4 2.45q10.38 0 10.38-6.47c0-2-1.33-3.63-4-4.89a56.7 56.7 0 0 0-9.7-3.38 102 102 0 0 1-11.43-3.76 23.54 23.54 0 0 1-9.7-7.15 18.77 18.77 0 0 1-4-12.25q0-11.13 8.2-17.52t20.37-6.39a34.06 34.06 0 0 1 16.7 4.13 30 30 0 0 1 10.47 9.55 2.42 2.42 0 0 1-.85 3.49l-12.13 6.64a2.46 2.46 0 0 1-3.23-.87Q1110 519 1102.81 519a11.06 11.06 0 0 0-6.24 1.65 5.18 5.18 0 0 0-2.48 4.54M993.34 544.59q0-10.83-7-15.49a22.43 22.43 0 0 0-13.34-3.8 2.42 2.42 0 0 1-2.51-2.41v-16.53a2.43 2.43 0 0 1 2.61-2.42 26.66 26.66 0 0 1 11.3 3.5 20.32 20.32 0 0 1 9 10.83" class="cls-2"/><path d="M1012.74 518.27v-10.52a2.42 2.42 0 0 0-2.42-2.42h-14.57a2.42 2.42 0 0 0-2.41 2.42v68.86a2.42 2.42 0 0 0 2.41 2.42h14.57a2.42 2.42 0 0 0 2.42-2.42z" style="fill:#6452f2"/></svg>